#N canvas 364 45 1436 1043 10;
#X obj 24 54 hsl 128 16 0 1 0 0 \$0noiselvl \$0noiseLvlIn noise_level:\ 1 10 8 1 10 #ffffff #000000 #000000 0 1;
#X obj 24 102 hsl 128 16 20 20000 1 0 \$0noisecut \$0noiseCutIn noise_cutoff:\ 20000Hz 10 8 1 10 #ffffff #000000 #000000 0 1;
#X obj 24 118 hsl 128 16 1 6 0 0 \$0noiseres \$0noiseResIn noise_res:\ 1 10 8 1 10 #fcfcfc #000000 #000000 0 1;
#X obj 157 54 hsl 128 16 0 4 0 0 \$0fdbcklvl \$0fdbckLvlIn fdbck_lvl:\ 2 10 8 1 10 #fcfcfc #000000 #000000 0 1;
#X obj 157 70 hsl 128 16 20 20000 1 0 \$0fdbckcut \$0fdbckCutIn lo_cut:\ 20000Hz 10 8 1 10 #fcfcfc #000000 #000000 0 1;
#X obj 157 86 hsl 128 16 1 5 0 0 \$0fdbckres \$0fdbckResIn fdbck_res:\ 1 10 8 1 10 #fcfcfc #000000 #000000 0 1;
#X obj 482 981 clip~ -1 1;
#X obj 482 481 fexpr~ tanh($x1 * $x2);
#X obj 611 338 r \$0fdbcklvl;
#X obj 482 640 bob~, f 7;
#X obj 501 612 sig~;
#X obj 501 503 r \$0fdbckcut;
#X obj 157 118 hsl 128 16 5 2048 1 0 \$0fdbckdelay \$0fdbckDelayIn delay_ms:\ 15ms 10 8 1 10 #fcfcfc #000000 #000000 0 1;
#X obj 482 9 r \$0fdbckdelay;
#X msg 624 923 clear;
#X obj 482 1003 *~ 0.4;
#N canvas 0 22 450 278 (subpatch) 0;
#X array \$0-GRAPHER 64 float 5;
#A 0 -0.0766679 -0.0858714 -0.091614 -0.0882235 -0.0807523 -0.0735211 -0.0666598 -0.0612335 -0.0582663 -0.0548258 -0.0461783 -0.0298117 -0.01113 0.00433095 0.0186919 0.029483 0.0318938 0.0332935 0.0449327 0.0586358 0.0569516 0.0532611 0.0603608 0.0607609 0.052873 0.0505209 0.0481643 0.0395527 0.035019 0.0404248 0.0517406 0.0586353 0.0539125 0.0416938 0.0297909 0.0220563 0.0156985 0.00730527 -0.00168991 -0.00827648 -0.0126298 -0.0176026 -0.0252972 -0.037792 -0.0548373 -0.072466 -0.0885499 -0.102717 -0.114215 -0.11998 -0.11241 -0.0694349 -0.0176171 -0.0257394 -0.0904376 -0.160508 -0.18937 -0.146408 -0.0652634 -0.0439049 -0.128084 -0.221438 -0.205597 -0.108586;
#X coords 0 -1.5 63 1.5 133 40 1 0 0;
#X restore 21 166 graph;
#N canvas 449 280 450 300 grapher 0;
#X obj 16 21 inlet~;
#X obj 139 21 inlet~;
#X obj 16 42 expr~ ($v1 + $v2) / 2;
#X text 150 44 Average of two signals;
#X obj 16 123 tabsend~ \$0-GRAPHER;
#X obj 28 160 block~ 64;
#X connect 0 0 2 0;
#X connect 1 0 2 1;
#X connect 2 0 4 0;
#X restore 531 1003 pd grapher;
#X text 17 234 CURRENTLY: white noise is sent into the delay line \, through a moog-type filter. Noise controls are controlled by the left slider set. This is written into the 'fdbck1' buffer. A 'delread4~' is used to access this buffer: it is sent multiplied by the feedback level \, and sent through a 'tanh' in the sample-level 'fexpr~' (which sounds better than the more efficient 'expr~'). This signal is sent through another 'bob~' \, the fedback into the feedback loop \, as well as a 'clip~' to restrict amplitude \, followed by a grapher \, then finally into a 'dac~'.;
#X obj 721 984 clip~ -1 1;
#X obj 721 484 fexpr~ tanh($x1 * $x2);
#X obj 721 643 bob~, f 7;
#X obj 760 620 sig~;
#X obj 760 506 r \$0fdbckres;
#X obj 721 1005 *~ 0.4;
#X obj 24 134 hsl 128 16 0 1 0 0 \$0linelvl \$0lineLvlIn line_lvl:\ 1 10 8 1 10 #ffffff #000000 #000000 0 1;
#X obj 26 381 inlet~;
#X obj 482 436 +~;
#X obj 518 369 *~;
#X obj 533 233 r \$0fdbckvib;
#X obj 533 348 sig~;
#X obj 721 439 +~;
#X obj 757 366 *~;
#X obj 772 345 sig~;
#X obj 157 150 hsl 128 16 0 3 0 0 \$0fdbckvib \$0fdbckVibIn vibrato:\ 0.1 10 8 1 10 #fcfcfc #000000 #000000 0 1;
#X obj 299 20 loadbang;
#X msg 299 81 20000;
#X msg 356 81 1;
#X obj 482 661 expr~ tanh($v1);
#X obj 721 664 expr~ tanh($v1);
#X obj 83 381 inlet~;
#N canvas 1329 427 450 300 line-in 0;
#X obj 26 27 inlet~;
#X obj 201 27 inlet~;
#X obj 26 202 *~;
#X obj 42 63 r \$0linelvl;
#X obj 41 172 sig~;
#X obj 201 203 *~;
#X obj 26 223 throw~ \$0inloopL;
#X obj 201 224 throw~ \$0inloopR;
#X obj 42 130 +;
#X obj 54 84 r \$0linelvlmod;
#X obj 54 105 t b f;
#X obj 42 151 clip 0 1;
#X connect 0 0 2 0;
#X connect 1 0 5 0;
#X connect 2 0 6 0;
#X connect 3 0 8 0;
#X connect 4 0 2 1;
#X connect 4 0 5 1;
#X connect 5 0 7 0;
#X connect 8 0 11 0;
#X connect 9 0 10 0;
#X connect 10 0 8 0;
#X connect 10 1 8 1;
#X connect 11 0 4 0;
#X restore 26 403 pd line-in;
#N canvas 1327 418 473 614 noise 0;
#X obj 21 367 *~;
#X obj 21 535 bob~, f 7;
#X obj 40 389 r \$0noisecut;
#X obj 40 498 sig~;
#X obj 244 466 sig~;
#X obj 244 349 r \$0noiseres;
#X obj 21 144 perlin~/perlin~;
#X obj 21 8 r \$0noisefreq;
#X obj 21 165 hip~ 5;
#X obj 21 186 hip~ 5;
#X obj 21 207 hip~ 5;
#X obj 154 8 r \$0noisemaxslope;
#X text 20 581 Matt Barber's Perlin Noise abstraction;
#X obj 108 165 hip~ 5;
#X obj 108 186 hip~ 5;
#X obj 108 207 hip~ 5;
#X obj 205 366 *~;
#X obj 36 234 r \$0noiselvl;
#X obj 36 339 sig~;
#X obj 205 534 bob~, f 7;
#X obj 21 557 throw~ \$0inloopL;
#X obj 205 555 throw~ \$0inloopR;
#X obj 52 255 r \$0noiselvlmod;
#X obj 52 276 t b f;
#X obj 36 297 +;
#X obj 21 85 +;
#X obj 34 33 r \$0noisefreqmod;
#X obj 34 54 t b f;
#X obj 154 89 +;
#X obj 171 29 r \$0noisemaxslopemod;
#X obj 171 50 t b f;
#X obj 40 456 +;
#X obj 49 411 r \$0noisecutmod;
#X obj 49 432 t b f;
#X obj 244 424 +;
#X obj 269 372 r $noiseresmod;
#X obj 269 393 t b f;
#X obj 36 318 clip 0 1;
#X obj 21 106 clip 20 20000;
#X obj 154 110 clip 1 10;
#X obj 40 477 clip 20 20000;
#X obj 244 445 clip 1 6;
#X connect 0 0 1 0;
#X connect 1 0 20 0;
#X connect 2 0 31 0;
#X connect 3 0 1 1;
#X connect 3 0 19 1;
#X connect 4 0 1 2;
#X connect 4 0 19 2;
#X connect 5 0 34 0;
#X connect 6 0 8 0;
#X connect 6 1 13 0;
#X connect 7 0 25 0;
#X connect 8 0 9 0;
#X connect 9 0 10 0;
#X connect 10 0 0 0;
#X connect 11 0 28 0;
#X connect 13 0 14 0;
#X connect 14 0 15 0;
#X connect 15 0 16 0;
#X connect 16 0 19 0;
#X connect 17 0 24 0;
#X connect 18 0 16 1;
#X connect 18 0 0 1;
#X connect 19 0 21 0;
#X connect 22 0 23 0;
#X connect 23 0 24 0;
#X connect 23 1 24 1;
#X connect 24 0 37 0;
#X connect 25 0 38 0;
#X connect 26 0 27 0;
#X connect 27 0 25 0;
#X connect 27 1 25 1;
#X connect 28 0 39 0;
#X connect 29 0 30 0;
#X connect 30 0 28 0;
#X connect 30 1 28 1;
#X connect 31 0 40 0;
#X connect 32 0 33 0;
#X connect 33 0 31 0;
#X connect 33 1 31 1;
#X connect 34 0 41 0;
#X connect 35 0 36 0;
#X connect 36 0 34 0;
#X connect 36 1 34 1;
#X connect 37 0 18 0;
#X connect 38 0 6 0;
#X connect 39 0 6 1;
#X connect 40 0 3 0;
#X connect 41 0 4 0;
#X restore 26 426 pd noise;
#X obj 157 102 hsl 128 16 20 20000 1 0 \$0fdbckhicut \$0fdbckHiCutIn hi_cut:\ 20Hz 10 8 1 10 #fcfcfc #000000 #000000 0 1;
#N canvas 1331 435 450 300 hicascade 0;
#X obj 17 18 inlet~;
#X obj 17 135 hip~;
#X obj 17 156 hip~;
#X obj 17 177 hip~;
#X obj 17 198 outlet~;
#X obj 185 16 inlet~;
#X obj 185 133 hip~;
#X obj 185 154 hip~;
#X obj 185 175 hip~;
#X obj 185 196 outlet~;
#X obj 77 18 r \$0fdbckhicut;
#X obj 77 94 +;
#X obj 89 39 r \$0fdbckhicutmod;
#X obj 89 60 t b f;
#X connect 0 0 1 0;
#X connect 1 0 2 0;
#X connect 2 0 3 0;
#X connect 3 0 4 0;
#X connect 5 0 6 0;
#X connect 6 0 7 0;
#X connect 7 0 8 0;
#X connect 8 0 9 0;
#X connect 10 0 11 0;
#X connect 11 0 1 1;
#X connect 11 0 2 1;
#X connect 11 0 3 1;
#X connect 11 0 6 1;
#X connect 11 0 7 1;
#X connect 11 0 8 1;
#X connect 12 0 13 0;
#X connect 13 0 11 0;
#X connect 13 1 11 1;
#X restore 482 683 pd hicascade;
#X f 36;
#X obj 482 844 *~;
#X obj 721 848 *~;
#X obj 157 166 hsl 128 16 1 10 1 1 \$0fdbckclipgain \$0fdbckClipGainIn gain:\ x1 10 8 1 10 #fcfcfc #000000 #000000 0 1;
#X obj 527 703 r \$0fdbckclipgain;
#X obj 527 819 sig~;
#X text 727 887 Cubic Nonlinearity \, found on reddit.;
#X obj 24 70 hsl 128 16 20 20000 1 0 \$0noisefreq \$0noiseFreqIn perlin_freq:\ 244.14Hz 10 8 1 10 #ffffff #000000 #000000 0 1;
#X obj 24 86 hsl 128 16 1 10 0 0 \$0noisemaxslope \$0noiseMaxSlopeIn max_slope:\ 7.377 10 8 1 10 #ffffff #000000 #000000 0 1;
#X obj 21 23 cnv 15 100 15 empty empty feedbacker1~ 2 8 1 12 #000000 #ffffff 0;
#X obj 757 209 delread~ \$0fdbck1 5;
#X obj 518 212 delread~ \$0fdbck2 5;
#X obj 21 39 cnv 15 65 15 empty empty perlin\ noise 2 7 1 12 #000000 #ffffff 0;
#X obj 154 39 cnv 15 75 15 empty empty feedback\ line 2 7 1 12 #000000 #ffffff 0;
#X obj 482 1080 outlet~;
#X obj 721 1082 outlet~;
#X obj 482 865 clip~ -1 1;
#X obj 721 869 clip~ -1 1;
#X obj 157 134 hsl 128 16 1 2048 1 0 \$0fdbckglide \$0fdbckGlideIn glide:\ 5ms 10 8 1 10 #fcfcfc #000000 #000000 0 1;
#X obj 527 190 f;
#X obj 482 112 t f b;
#X obj 542 51 r \$0fdbckglide;
#X obj 482 411 vline~;
#X obj 721 415 vline~;
#X obj 511 923 catch~ \$0inloopL;
#X obj 756 927 catch~ \$0inloopR;
#X obj 500 958 delwrite~ \$0fdbck1 2048;
#X obj 744 962 delwrite~ \$0fdbck2 2048;
#X obj 482 457 delread4~ \$0fdbck1 1;
#X obj 721 460 delread4~ \$0fdbck2 1;
#X obj 299 152 s \$0fdbckCutIn;
#X obj 356 101 s \$0noiseResIn;
#X obj 936 21 inlet;
#X text 973 22 Modulation;
#X obj 721 904 fexpr~ $x1 - 1/3 * pow($x1 \, 3);
#X obj 482 900 fexpr~ $x1 - 1/3 * pow($x1 \, 3);
#X obj 611 406 +;
#X obj 623 360 r \$0fdbcklvlmod;
#X obj 623 381 t b f;
#X obj 501 570 +;
#X obj 512 546 t b f;
#X obj 512 525 r \$0fdbckcutmod;
#X obj 760 574 +;
#X obj 771 527 r \$0fdbckresmod;
#X obj 771 548 t b f;
#X obj 482 70 +;
#X obj 492 30 r \$0fdbckdelaymod;
#X obj 492 51 t b f;
#X obj 542 120 +;
#X obj 560 73 r \$0fdbckglidemode;
#X obj 560 94 t b f;
#X obj 721 10 r \$0fdbckdelay;
#X obj 766 191 f;
#X obj 721 113 t f b;
#X obj 781 52 r \$0fdbckglide;
#X obj 721 71 +;
#X obj 731 31 r \$0fdbckdelaymod;
#X obj 731 52 t b f;
#X obj 781 121 +;
#X obj 799 74 r \$0fdbckglidemode;
#X obj 799 95 t b f;
#X obj 533 298 +;
#X obj 545 276 t b f;
#X obj 545 255 r \$0fdbckvibmod;
#X obj 772 230 r \$0fdbckvib;
#X obj 772 295 +;
#X obj 784 273 t b f;
#X obj 784 252 r \$0fdbckvibmod;
#X obj 527 770 +;
#X obj 537 727 r \$0fdbckclipgainmod;
#X obj 537 748 t b f;
#X obj 611 427 clip 0 4;
#X obj 501 591 clip 20 20000;
#X obj 760 595 clip 1 5;
#X obj 482 91 clip 0 2048;
#X obj 721 92 clip 0 2048;
#X obj 542 141 clip 0 2048;
#X obj 781 142 clip 0 2048;
#X obj 533 319 clip 0 10;
#X obj 772 316 clip 0 10;
#X obj 527 791 clip 1 10;
#X obj 310 175 s \$0noiseCutIn;
#X obj 366 122 s \$0fdbckResIn;
#X obj 157 182 hsl 128 16 0 1 0 1 \$0vol \$0volIn vol:\ 0.67 10 8 1 10 #fcfcfc #000000 #000000 8600 1;
#X obj 936 85 s \$0noiseLvlIn;
#X obj 958 106 s \$0noiseFreqIn;
#X obj 980 127 s \$0noiseMaxSlopeIn;
#X obj 1002 148 s \$0noiseCutIn;
#X obj 1024 170 s \$0noiseResIn;
#X obj 1046 192 s \$0lineLvlIn;
#X obj 1068 214 s \$0fdbckLvlIn;
#X obj 1090 235 s \$0fdbckCutIn;
#X obj 1112 257 s \$0fdbckResIn;
#X obj 1134 278 s \$0fdbckHiCutIn;
#X obj 1178 322 s \$0fdbckGlideIn;
#X obj 1200 343 s \$0fdbckVibIn;
#X obj 1222 364 s \$0fdbckClipGainIn;
#X obj 1156 300 s \$0fdbckDelayIn;
#X obj 482 1059 *~;
#X obj 721 1061 *~;
#X obj 616 1010 r \$0vol;
#X obj 616 1031 sig~;
#N canvas 757 109 703 935 sliderdisplay 0;
#X msg 22 116 label \$1;
#X obj 22 32 * 100;
#X obj 22 53 int;
#X obj 22 74 / 100;
#X msg 238 115 label \$1;
#X obj 238 31 * 100;
#X obj 238 52 int;
#X obj 238 73 / 100;
#X msg 442 132 label \$1;
#X obj 442 69 int;
#X obj 442 48 * 1000;
#X obj 442 90 / 1000;
#X msg 23 271 label \$1;
#X obj 23 208 int;
#X msg 239 274 label \$1;
#X obj 239 190 * 100;
#X obj 239 211 int;
#X obj 239 232 / 100;
#X msg 442 285 label \$1;
#X obj 442 201 * 100;
#X obj 442 222 int;
#X obj 442 243 / 100;
#X obj 22 137 s \$0noiseLvlIn;
#X obj 22 11 r \$0noiselvl;
#X msg 22 95 symbol noise_level:\\\ \$1;
#X obj 238 10 r \$0noisefreq;
#X obj 238 136 s \$0noiseFreqIn;
#X msg 238 94 symbol perlin_freq:\\\ \$1Hz;
#X obj 442 27 r \$0noisemaxslope;
#X obj 442 153 s \$0noiseMaxSlopeIn;
#X msg 442 111 symbol max_slope:\\\ \$1;
#X obj 23 166 r \$0noisecut;
#X obj 23 187 * 100;
#X obj 23 229 / 100;
#X msg 23 250 symbol noise_cutoff:\\\ \$1Hz;
#X obj 23 292 s \$0noiseCutIn;
#X obj 239 169 r \$0noiseres;
#X obj 239 295 s \$0noiseResIn;
#X obj 442 180 r \$0fdbcklvl;
#X obj 442 306 s \$0fdbckLvlIn;
#X msg 442 264 symbol fdbck_lvl:\\\ \$1;
#X msg 23 443 label \$1;
#X obj 23 380 int;
#X obj 23 359 * 100;
#X obj 23 401 / 100;
#X obj 23 338 r \$0fdbckcut;
#X msg 23 422 symbol lo_cut:\\\ \$1Hz;
#X obj 23 464 s \$0fdbckCutIn;
#X msg 239 253 symbol noise_res:\\\ \$1;
#X msg 240 444 label \$1;
#X obj 240 360 * 100;
#X obj 240 381 int;
#X obj 240 402 / 100;
#X obj 240 339 r \$0fdbckres;
#X obj 240 465 s \$0fdbckResIn;
#X msg 240 423 symbol fdbck_res:\\\ \$1;
#X msg 429 450 label \$1;
#X obj 429 387 int;
#X obj 429 366 * 100;
#X obj 429 408 / 100;
#X obj 429 345 r \$0fdbckhicut;
#X obj 429 471 s \$0fdbckHiCutIn;
#X msg 31 625 label \$1;
#X obj 31 562 int;
#X obj 31 541 * 100;
#X obj 31 583 / 100;
#X obj 31 520 r \$0fdbckdelay;
#X obj 31 646 s \$0fdbckDelayIn;
#X msg 31 604 symbol delay_ms:\\\ \$1ms;
#X msg 192 620 label \$1;
#X obj 192 557 int;
#X obj 192 536 * 100;
#X obj 192 578 / 100;
#X obj 192 515 r \$0fdbckglide;
#X msg 192 599 symbol glide:\\\ \$1ms;
#X obj 192 641 s \$0fdbckGlideIn;
#X msg 378 626 label \$1;
#X obj 378 563 int;
#X obj 378 542 * 100;
#X obj 378 584 / 100;
#X obj 378 521 r \$0fdbckvib;
#X msg 378 605 symbol vibrato:\\\ \$1;
#X obj 378 647 s \$0fdbckVibIn;
#X msg 533 636 label \$1;
#X obj 533 573 int;
#X obj 533 552 * 100;
#X obj 533 594 / 100;
#X obj 533 531 r \$0fdbckclipgain;
#X obj 533 657 s \$0fdbckClipGainIn;
#X msg 533 615 symbol gain:\\\ x\$1;
#X msg 31 802 label \$1;
#X obj 31 718 * 100;
#X obj 31 739 int;
#X obj 31 760 / 100;
#X obj 31 697 r \$0vol;
#X obj 31 823 s \$0volIn;
#X msg 31 781 symbol vol:\\\ \$1;
#X msg 429 429 symbol hi_cut:\\\ \$1Hz;
#X msg 194 823 label \$1;
#X obj 194 739 * 100;
#X obj 194 760 int;
#X obj 194 781 / 100;
#X obj 194 718 r \$0linelvl;
#X msg 194 802 symbol line_lvl:\\\ \$1;
#X obj 194 844 s \$0lineLvlIn;
#X connect 0 0 22 0;
#X connect 1 0 2 0;
#X connect 2 0 3 0;
#X connect 3 0 24 0;
#X connect 4 0 26 0;
#X connect 5 0 6 0;
#X connect 6 0 7 0;
#X connect 7 0 27 0;
#X connect 8 0 29 0;
#X connect 9 0 11 0;
#X connect 10 0 9 0;
#X connect 11 0 30 0;
#X connect 12 0 35 0;
#X connect 13 0 33 0;
#X connect 14 0 37 0;
#X connect 15 0 16 0;
#X connect 16 0 17 0;
#X connect 17 0 48 0;
#X connect 18 0 39 0;
#X connect 19 0 20 0;
#X connect 20 0 21 0;
#X connect 21 0 40 0;
#X connect 23 0 1 0;
#X connect 24 0 0 0;
#X connect 25 0 5 0;
#X connect 27 0 4 0;
#X connect 28 0 10 0;
#X connect 30 0 8 0;
#X connect 31 0 32 0;
#X connect 32 0 13 0;
#X connect 33 0 34 0;
#X connect 34 0 12 0;
#X connect 36 0 15 0;
#X connect 38 0 19 0;
#X connect 40 0 18 0;
#X connect 41 0 47 0;
#X connect 42 0 44 0;
#X connect 43 0 42 0;
#X connect 44 0 46 0;
#X connect 45 0 43 0;
#X connect 46 0 41 0;
#X connect 48 0 14 0;
#X connect 49 0 54 0;
#X connect 50 0 51 0;
#X connect 51 0 52 0;
#X connect 52 0 55 0;
#X connect 53 0 50 0;
#X connect 55 0 49 0;
#X connect 56 0 61 0;
#X connect 57 0 59 0;
#X connect 58 0 57 0;
#X connect 59 0 97 0;
#X connect 60 0 58 0;
#X connect 62 0 67 0;
#X connect 63 0 65 0;
#X connect 64 0 63 0;
#X connect 65 0 68 0;
#X connect 66 0 64 0;
#X connect 68 0 62 0;
#X connect 69 0 75 0;
#X connect 70 0 72 0;
#X connect 71 0 70 0;
#X connect 72 0 74 0;
#X connect 73 0 71 0;
#X connect 74 0 69 0;
#X connect 76 0 82 0;
#X connect 77 0 79 0;
#X connect 78 0 77 0;
#X connect 79 0 81 0;
#X connect 80 0 78 0;
#X connect 81 0 76 0;
#X connect 83 0 88 0;
#X connect 84 0 86 0;
#X connect 85 0 84 0;
#X connect 86 0 89 0;
#X connect 87 0 85 0;
#X connect 89 0 83 0;
#X connect 90 0 95 0;
#X connect 91 0 92 0;
#X connect 92 0 93 0;
#X connect 93 0 96 0;
#X connect 94 0 91 0;
#X connect 96 0 90 0;
#X connect 97 0 56 0;
#X connect 98 0 104 0;
#X connect 99 0 100 0;
#X connect 100 0 101 0;
#X connect 101 0 103 0;
#X connect 102 0 99 0;
#X connect 103 0 98 0;
#X restore 26 462 pd sliderdisplay;
#X msg 348 40 5;
#X obj 348 61 s \$0fdbckDelayIn;
#X obj 936 42 route noise_level perlin_freq max_slope noise_cutoff noise_res line_lvl fdbck_lvl lo_cut fdbck_res hi_cut delay_ms glide vibrato gain vol;
#X obj 1231 136 s \$0volIn;
#X connect 6 0 17 0;
#X connect 6 0 15 0;
#X connect 7 0 9 0;
#X connect 8 0 80 0;
#X connect 9 0 38 0;
#X connect 10 0 9 1;
#X connect 10 0 21 1;
#X connect 11 0 83 0;
#X connect 13 0 89 0;
#X connect 14 0 70 0;
#X connect 14 0 71 0;
#X connect 15 0 142 0;
#X connect 19 0 17 1;
#X connect 19 0 24 0;
#X connect 20 0 21 0;
#X connect 21 0 39 0;
#X connect 22 0 9 2;
#X connect 22 0 21 2;
#X connect 23 0 86 0;
#X connect 24 0 143 0;
#X connect 26 0 41 0;
#X connect 27 0 72 0;
#X connect 28 0 27 1;
#X connect 29 0 105 0;
#X connect 30 0 28 1;
#X connect 31 0 73 0;
#X connect 32 0 31 1;
#X connect 33 0 32 1;
#X connect 35 0 36 0;
#X connect 35 0 37 0;
#X connect 35 0 147 0;
#X connect 36 0 74 0;
#X connect 36 0 125 0;
#X connect 37 0 75 0;
#X connect 37 0 126 0;
#X connect 38 0 44 0;
#X connect 39 0 44 1;
#X connect 40 0 41 1;
#X connect 44 0 45 0;
#X connect 44 1 46 0;
#X connect 45 0 60 0;
#X connect 46 0 61 0;
#X connect 48 0 112 0;
#X connect 49 0 45 1;
#X connect 49 0 46 1;
#X connect 54 0 32 0;
#X connect 55 0 28 0;
#X connect 60 0 79 0;
#X connect 61 0 78 0;
#X connect 63 0 66 1;
#X connect 64 0 66 0;
#X connect 64 1 63 0;
#X connect 65 0 92 0;
#X connect 66 0 27 0;
#X connect 67 0 31 0;
#X connect 68 0 70 0;
#X connect 69 0 71 0;
#X connect 72 0 7 0;
#X connect 73 0 20 0;
#X connect 76 0 149 0;
#X connect 78 0 19 0;
#X connect 78 0 71 0;
#X connect 79 0 6 0;
#X connect 79 0 70 0;
#X connect 80 0 115 0;
#X connect 81 0 82 0;
#X connect 82 0 80 0;
#X connect 82 1 80 1;
#X connect 83 0 116 0;
#X connect 84 0 83 0;
#X connect 84 1 83 1;
#X connect 85 0 84 0;
#X connect 86 0 117 0;
#X connect 87 0 88 0;
#X connect 88 0 86 0;
#X connect 88 1 86 1;
#X connect 89 0 118 0;
#X connect 90 0 91 0;
#X connect 91 0 89 0;
#X connect 91 1 89 1;
#X connect 92 0 120 0;
#X connect 93 0 94 0;
#X connect 94 0 92 0;
#X connect 94 1 92 1;
#X connect 95 0 99 0;
#X connect 96 0 67 1;
#X connect 97 0 67 0;
#X connect 97 1 96 0;
#X connect 98 0 102 0;
#X connect 99 0 119 0;
#X connect 100 0 101 0;
#X connect 101 0 99 0;
#X connect 101 1 99 1;
#X connect 102 0 121 0;
#X connect 103 0 104 0;
#X connect 104 0 102 0;
#X connect 104 1 102 1;
#X connect 105 0 122 0;
#X connect 106 0 105 0;
#X connect 106 1 105 1;
#X connect 107 0 106 0;
#X connect 108 0 109 0;
#X connect 109 0 123 0;
#X connect 110 0 109 0;
#X connect 110 1 109 1;
#X connect 111 0 110 0;
#X connect 112 0 124 0;
#X connect 113 0 114 0;
#X connect 114 0 112 0;
#X connect 114 1 112 1;
#X connect 115 0 7 1;
#X connect 115 0 20 1;
#X connect 116 0 10 0;
#X connect 117 0 22 0;
#X connect 118 0 64 0;
#X connect 119 0 97 0;
#X connect 120 0 63 1;
#X connect 120 0 63 0;
#X connect 121 0 96 0;
#X connect 121 0 96 1;
#X connect 122 0 30 0;
#X connect 123 0 33 0;
#X connect 124 0 49 0;
#X connect 142 0 58 0;
#X connect 143 0 59 0;
#X connect 144 0 145 0;
#X connect 145 0 142 1;
#X connect 145 0 143 1;
#X connect 147 0 148 0;
#X connect 149 0 128 0;
#X connect 149 1 129 0;
#X connect 149 2 130 0;
#X connect 149 3 131 0;
#X connect 149 4 132 0;
#X connect 149 5 133 0;
#X connect 149 6 134 0;
#X connect 149 7 135 0;
#X connect 149 8 136 0;
#X connect 149 9 137 0;
#X connect 149 10 141 0;
#X connect 149 11 138 0;
#X connect 149 12 139 0;
#X connect 149 13 140 0;
#X connect 149 14 150 0;
#X coords 0 -1 1 1 268 189 2 20 20;
