#N canvas 599 150 828 853 10;
#X obj 184 49 tgl 25 1 \$0mute \$0padON on 7 13 1 10 #fcfcfc #000000 #000000 1 1;
#X floatatom 142 38 5 0 0 0 - - - 0;
#X floatatom 142 54 5 0 0 0 - - - 0;
#X floatatom 142 69 6 0 0 3 PAD_KEY - \$0padLetter 8;
#X obj 125 260 table \$0left;
#X obj 125 286 table \$0right;
#X obj 292 31 key;
#X obj 292 100 sel;
#X obj 325 31 r \$0padLetter;
#X obj 325 55 - 32;
#X obj 428 100 sel;
#X obj 428 31 keyup;
#X obj 292 124 timer;
#X floatatom 292 148 10 0 0 0 - - - 0;
#X obj 292 244 *;
#X obj 324 195 samplerate~;
#X obj 292 171 t f b;
#X msg 428 124 stop;
#X obj 424 194 tabwrite~ \$0left;
#X obj 552 194 tabwrite~ \$0right;
#X obj 481 31 inlet~;
#X obj 552 31 inlet~;
#X obj 640 114 pack f f;
#X obj 672 63 samplerate~;
#X obj 672 87 * 60;
#X msg 640 138 resize \$2;
#X obj 640 162 s \$0left;
#X obj 708 162 s \$0right;
#X obj 640 15 loadbang;
#X obj 640 39 t b b;
#X msg 125 340 \$1 60;
#X obj 125 364 expr ($f1 / $f2);
#X obj 125 316 r \$0speed;
#X floatatom 125 388 5 0 0 0 - - - 0;
#X obj 125 411 f;
#X obj 125 435 /;
#X obj 292 268 /;
#X obj 292 292 t b f;
#X obj 125 459 phasor~;
#X msg 171 435 0;
#X obj 125 483 *~;
#X obj 125 507 +~ 1;
#X obj 324 219 / 1000;
#X obj 251 426 r \$0pan;
#X obj 251 450 sig~;
#X obj 251 499 +~ 1;
#X obj 251 475 *~ -1;
#X obj 125 555 *~;
#X obj 310 555 *~;
#X obj 125 627 *~;
#X obj 310 627 *~;
#X obj 211 555 r \$0vol;
#X obj 211 579 sig~;
#X obj 125 701 *~;
#X obj 310 701 *~;
#X obj 192 669 line~ 5;
#X obj 125 725 outlet~;
#X obj 310 725 outlet~;
#X obj 328 341 key;
#X obj 328 365 sel;
#X obj 398 319 r \$0padLetter;
#X obj 192 645 r \$0mute;
#X obj 328 450 s \$0padON;
#X obj 516 299 env~ 128;
#X obj 516 324 - 100;
#X obj 583 299 env~ 128;
#X obj 583 324 - 100;
#X obj 516 348 * 1;
#X obj 516 372 s \$0vu;
#X msg 616 506 const 0;
#X obj 616 530 s \$0left;
#X obj 687 530 s \$0right;
#X obj 445 263 f;
#X obj 23 68 hsl 117 15 0 1 0 0 \$0vol empty vol 15 8 1 10 #fcfcfc #000000 #000000 0 1;
#X obj 23 38 hsl 117 15 -2 2 0 0 \$0speed \$0speedin speed 15 8 1 10 #fcfcfc #000000 #000000 0 1;
#X obj 23 53 hsl 117 15 0 1 0 0 \$0pan \$0panin pan 15 8 0 10 #fcfcfc #000000 #000000 0 1;
#X obj 174 40 vsl 10 40 -100 12 0 0 empty \$0vu vu 0 -7 1 10 #c7c6ff #000000 #000000 0 1;
#X obj 21 23 cnv 15 80 14 empty empty SAMPLER1~ 2 8 1 12 #9c00ff #ffffff 0;
#X obj 56 150 loadbang;
#X msg 56 171 1;
#X msg 135 171 0.5;
#X obj 56 192 s \$0speedin;
#X obj 135 192 s \$0panin;
#X obj 360 364 sel;
#X obj 360 340 keyup;
#X obj 328 386 timer;
#X obj 328 428 sel 1;
#X obj 328 407 < 500;
#X obj 616 398 key;
#X obj 616 422 sel;
#X obj 686 376 r \$0padLetter;
#X obj 648 421 sel;
#X obj 648 397 keyup;
#X obj 616 443 timer;
#X obj 616 485 sel 1;
#X obj 616 464 > 1000;
#X obj 125 531 tabread~ \$0left;
#X obj 310 531 tabread~ \$0right;
#X connect 6 0 7 0;
#X connect 7 0 12 0;
#X connect 7 0 18 0;
#X connect 7 0 19 0;
#X connect 7 0 72 0;
#X connect 8 0 9 0;
#X connect 9 0 7 1;
#X connect 9 0 10 1;
#X connect 10 0 12 1;
#X connect 10 0 17 0;
#X connect 10 0 39 0;
#X connect 11 0 10 0;
#X connect 12 0 13 0;
#X connect 13 0 16 0;
#X connect 14 0 36 0;
#X connect 14 0 40 1;
#X connect 15 0 42 0;
#X connect 16 0 14 0;
#X connect 16 1 15 0;
#X connect 17 0 18 0;
#X connect 17 0 19 0;
#X connect 20 0 18 0;
#X connect 21 0 19 0;
#X connect 22 0 25 0;
#X connect 23 0 24 0;
#X connect 24 0 22 1;
#X connect 24 0 36 1;
#X connect 24 0 72 1;
#X connect 25 0 26 0;
#X connect 25 0 27 0;
#X connect 28 0 29 0;
#X connect 29 0 22 0;
#X connect 29 1 23 0;
#X connect 30 0 31 0;
#X connect 31 0 33 0;
#X connect 32 0 30 0;
#X connect 33 0 34 0;
#X connect 33 0 34 1;
#X connect 34 0 35 0;
#X connect 35 0 38 0;
#X connect 36 0 37 0;
#X connect 37 0 34 0;
#X connect 37 1 35 1;
#X connect 38 0 40 0;
#X connect 39 0 38 1;
#X connect 40 0 41 0;
#X connect 41 0 96 0;
#X connect 41 0 97 0;
#X connect 42 0 14 1;
#X connect 43 0 44 0;
#X connect 44 0 46 0;
#X connect 44 0 48 1;
#X connect 45 0 47 1;
#X connect 46 0 45 0;
#X connect 47 0 49 0;
#X connect 48 0 50 0;
#X connect 49 0 53 0;
#X connect 50 0 54 0;
#X connect 51 0 52 0;
#X connect 52 0 49 1;
#X connect 52 0 50 1;
#X connect 53 0 56 0;
#X connect 53 0 63 0;
#X connect 54 0 57 0;
#X connect 54 0 65 0;
#X connect 55 0 53 1;
#X connect 55 0 54 1;
#X connect 58 0 59 0;
#X connect 59 0 85 0;
#X connect 60 0 59 1;
#X connect 60 0 83 1;
#X connect 61 0 55 0;
#X connect 63 0 64 0;
#X connect 64 0 67 0;
#X connect 65 0 66 0;
#X connect 66 0 67 0;
#X connect 67 0 68 0;
#X connect 69 0 70 0;
#X connect 69 0 71 0;
#X connect 72 0 40 1;
#X connect 74 0 1 0;
#X connect 75 0 2 0;
#X connect 78 0 79 0;
#X connect 78 0 80 0;
#X connect 79 0 81 0;
#X connect 80 0 82 0;
#X connect 83 0 85 1;
#X connect 84 0 83 0;
#X connect 85 0 87 0;
#X connect 86 0 62 0;
#X connect 87 0 86 0;
#X connect 88 0 89 0;
#X connect 89 0 93 0;
#X connect 90 0 89 1;
#X connect 90 0 91 1;
#X connect 91 0 93 1;
#X connect 92 0 91 0;
#X connect 93 0 95 0;
#X connect 94 0 69 0;
#X connect 95 0 94 0;
#X connect 96 0 47 0;
#X connect 97 0 48 0;
#X coords 0 -1 1 1 190 78 2 20 20;
