#N canvas 338 200 1151 853 10;
#X obj 102 23 tgl 16 1 \$0mute \$0padON on 3 7 1 10 #ffffff #000000 #000000 1 1;
#X obj 317 268 table \$0left;
#X obj 317 294 table \$0right;
#X obj 484 39 key;
#X obj 484 108 sel;
#X obj 517 39 r \$0padLetter;
#X obj 517 63 - 32;
#X obj 620 108 sel;
#X obj 620 39 keyup;
#X obj 484 132 timer;
#X floatatom 484 156 10 0 0 0 - - - 0;
#X obj 484 252 *;
#X obj 516 203 samplerate~;
#X obj 484 179 t f b;
#X msg 620 132 stop;
#X obj 616 202 tabwrite~ \$0left;
#X obj 744 202 tabwrite~ \$0right;
#X obj 673 39 inlet~;
#X obj 744 39 inlet~;
#X obj 236 121 pack f f;
#X obj 268 70 samplerate~;
#X obj 268 94 * 60;
#X msg 236 145 resize \$2;
#X obj 236 169 s \$0left;
#X obj 304 169 s \$0right;
#X obj 236 22 loadbang;
#X obj 236 46 t b b;
#X msg 317 348 \$1 60;
#X obj 317 372 expr ($f1 / $f2);
#X obj 317 324 r \$0speed;
#X floatatom 317 396 5 0 0 0 - - - 0;
#X obj 317 419 f;
#X obj 317 443 /;
#X obj 484 276 /;
#X obj 484 300 t b f;
#X obj 317 467 phasor~;
#X msg 363 443 0;
#X obj 317 491 *~;
#X obj 317 515 +~ 1;
#X obj 516 227 / 1000;
#X obj 443 434 r \$0pan;
#X obj 443 458 sig~;
#X obj 443 507 +~ 1;
#X obj 443 483 *~ -1;
#X obj 317 563 *~;
#X obj 502 563 *~;
#X obj 317 635 *~;
#X obj 502 635 *~;
#X obj 403 563 r \$0vol;
#X obj 403 587 sig~;
#X obj 317 709 *~;
#X obj 502 709 *~;
#X obj 384 677 line~ 5;
#X obj 317 733 outlet~;
#X obj 502 733 outlet~;
#X obj 520 349 key;
#X obj 520 373 sel;
#X obj 590 327 r \$0padLetter;
#X obj 384 653 r \$0mute;
#X obj 520 458 s \$0padON;
#X msg 645 700 const 0;
#X obj 645 763 s \$0left;
#X obj 705 763 s \$0right;
#X obj 637 271 f;
#X obj 24 69 hsl 117 15 0 1 0 0 \$0vol \$0volIn vol:\ 1 15 8 1 10 #fcfcfc #000000 #000000 0 1;
#X obj 24 39 hsl 117 15 -2 2 0 0 \$0speed \$0speedin speed:\ x-1.44 15 8 1 10 #fcfcfc #000000 #000000 0 1;
#X obj 24 54 hsl 117 15 0 1 0 0 \$0pan \$0panin pan:\ 0.8 15 8 0 10 #fcfcfc #000000 #000000 0 1;
#X obj 21 23 cnv 15 80 16 empty empty w.sampler1~ 4 8 1 12 #9c00ff #ffffff 0;
#X obj 56 150 loadbang;
#X msg 56 171 1;
#X msg 135 171 0.5;
#X obj 56 192 s \$0speedin;
#X obj 135 192 s \$0panin;
#X obj 552 372 sel;
#X obj 552 348 keyup;
#X obj 520 394 timer;
#X obj 520 436 sel 1;
#X obj 520 415 < 500;
#X obj 645 592 key;
#X obj 645 616 sel;
#X obj 715 570 r \$0padLetter;
#X obj 677 615 sel;
#X obj 677 591 keyup;
#X obj 645 637 timer;
#X obj 645 679 sel 1;
#X obj 645 658 > 1000;
#X obj 317 539 tabread~ \$0left;
#X obj 502 539 tabread~ \$0right;
#N canvas 268 363 679 644 sliderdisplay 0;
#X msg 22 115 label \$1;
#X obj 22 53 int;
#X obj 22 11 r \$0speed;
#X obj 22 136 s \$0speedin;
#X msg 22 94 symbol speed:\\\ x\$1;
#X obj 22 32 * 100;
#X obj 22 74 / 100;
#X msg 150 115 label \$1;
#X obj 150 53 int;
#X obj 150 11 r \$0pan;
#X msg 150 94 symbol pan:\\\ \$1;
#X obj 150 136 s \$0panin;
#X msg 318 125 label \$1;
#X obj 318 63 int;
#X obj 318 21 r \$0vol;
#X obj 318 146 s \$0volIn;
#X msg 318 104 symbol vol:\\\ \$1;
#X obj 318 84 / 100;
#X obj 318 42 * 100;
#X obj 150 32 * 100;
#X obj 150 74 / 100;
#X connect 0 0 3 0;
#X connect 1 0 6 0;
#X connect 2 0 5 0;
#X connect 4 0 0 0;
#X connect 5 0 1 0;
#X connect 6 0 4 0;
#X connect 7 0 11 0;
#X connect 8 0 20 0;
#X connect 9 0 19 0;
#X connect 10 0 7 0;
#X connect 12 0 15 0;
#X connect 13 0 17 0;
#X connect 14 0 18 0;
#X connect 16 0 12 0;
#X connect 17 0 16 0;
#X connect 18 0 13 0;
#X connect 19 0 8 0;
#X connect 20 0 10 0;
#X restore 54 119 pd sliderdisplay;
#N canvas 150 194 450 278 (subpatch) 0;
#X array \$0buffer 59 float 0;
#X coords 0 1 58 -1 66 45 1 0 0;
#X restore 143 39 graph;
#X obj 858 181 *~ 0.5;
#X obj 858 202 tabwrite~ \$0buffer;
#X obj 170 284 key;
#X obj 170 305 spigot;
#X floatatom 170 326 5 0 0 0 - - - 0;
#X obj 170 346 t f b;
#X obj 170 388 s \$0padLetter;
#X obj 203 284 r \$0bind;
#X obj 197 367 s \$0bindIn;
#X obj 21 84 tgl 16 0 \$0bind \$0bindIn bind 20 8 1 10 #fcfcfc #000000 #000000 0 1;
#X floatatom 411 111 5 0 0 0 - - - 0;
#X msg 392 210 resize \$1;
#X obj 392 231 s \$0buffer;
#X obj 374 20 loadbang;
#X msg 374 41 resize 1000;
#X obj 374 62 s \$0buffer;
#X obj 771 763 s \$0buffer;
#X connect 3 0 4 0;
#X connect 4 0 9 0;
#X connect 4 0 15 0;
#X connect 4 0 16 0;
#X connect 4 0 63 0;
#X connect 4 0 91 0;
#X connect 5 0 6 0;
#X connect 5 0 100 0;
#X connect 6 0 4 1;
#X connect 6 0 7 1;
#X connect 7 0 9 1;
#X connect 7 0 14 0;
#X connect 7 0 36 0;
#X connect 8 0 7 0;
#X connect 9 0 10 0;
#X connect 10 0 13 0;
#X connect 10 0 101 0;
#X connect 11 0 33 0;
#X connect 11 0 37 1;
#X connect 12 0 39 0;
#X connect 13 0 11 0;
#X connect 13 1 12 0;
#X connect 14 0 15 0;
#X connect 14 0 16 0;
#X connect 14 0 91 0;
#X connect 17 0 15 0;
#X connect 17 0 90 0;
#X connect 18 0 16 0;
#X connect 18 0 90 0;
#X connect 19 0 22 0;
#X connect 20 0 21 0;
#X connect 21 0 19 1;
#X connect 21 0 33 1;
#X connect 21 0 63 1;
#X connect 22 0 23 0;
#X connect 22 0 24 0;
#X connect 25 0 26 0;
#X connect 26 0 19 0;
#X connect 26 1 20 0;
#X connect 27 0 28 0;
#X connect 28 0 30 0;
#X connect 29 0 27 0;
#X connect 30 0 31 0;
#X connect 30 0 31 1;
#X connect 31 0 32 0;
#X connect 32 0 35 0;
#X connect 33 0 34 0;
#X connect 34 0 31 0;
#X connect 34 1 32 1;
#X connect 35 0 37 0;
#X connect 36 0 35 1;
#X connect 37 0 38 0;
#X connect 38 0 86 0;
#X connect 38 0 87 0;
#X connect 39 0 11 1;
#X connect 40 0 41 0;
#X connect 41 0 43 0;
#X connect 41 0 45 1;
#X connect 42 0 44 1;
#X connect 43 0 42 0;
#X connect 44 0 46 0;
#X connect 45 0 47 0;
#X connect 46 0 50 0;
#X connect 47 0 51 0;
#X connect 48 0 49 0;
#X connect 49 0 46 1;
#X connect 49 0 47 1;
#X connect 50 0 53 0;
#X connect 51 0 54 0;
#X connect 52 0 50 1;
#X connect 52 0 51 1;
#X connect 55 0 56 0;
#X connect 56 0 75 0;
#X connect 57 0 56 1;
#X connect 57 0 73 1;
#X connect 58 0 52 0;
#X connect 60 0 61 0;
#X connect 60 0 62 0;
#X connect 60 0 106 0;
#X connect 63 0 37 1;
#X connect 68 0 69 0;
#X connect 68 0 70 0;
#X connect 69 0 71 0;
#X connect 70 0 72 0;
#X connect 73 0 75 1;
#X connect 74 0 73 0;
#X connect 75 0 77 0;
#X connect 76 0 59 0;
#X connect 77 0 76 0;
#X connect 78 0 79 0;
#X connect 79 0 83 0;
#X connect 80 0 79 1;
#X connect 80 0 81 1;
#X connect 81 0 83 1;
#X connect 82 0 81 0;
#X connect 83 0 85 0;
#X connect 84 0 60 0;
#X connect 85 0 84 0;
#X connect 86 0 44 0;
#X connect 87 0 45 0;
#X connect 90 0 91 0;
#X connect 92 0 93 0;
#X connect 93 0 94 0;
#X connect 94 0 95 0;
#X connect 95 0 96 0;
#X connect 95 1 98 0;
#X connect 97 0 93 1;
#X connect 101 0 102 0;
#X connect 103 0 104 0;
#X connect 104 0 105 0;
#X coords 0 -1 1 1 190 83 2 20 20;
